<svg xmlns="http://www.w3.org/2000/svg" viewBox="0 0 120 140">
  <!-- Body / shirt -->
  <rect x="28" y="112" width="64" height="28" rx="14" fill="#7BBFEA"/>
  <!-- Neck -->
  <rect x="50" y="96" width="20" height="18" rx="6" fill="#FBBF7A"/>
  <!-- Head -->
  <ellipse cx="60" cy="72" rx="36" ry="38" fill="#FBBF7A"/>
  <!-- Hair -->
  <ellipse cx="60" cy="42" rx="36" ry="16" fill="#7D4E2A"/>
  <ellipse cx="30" cy="52" rx="10" ry="12" fill="#7D4E2A"/>
  <ellipse cx="90" cy="52" rx="10" ry="12" fill="#7D4E2A"/>
  <!-- Energy sparks -->
  <path d="M90 34 L94 28 L96 34 L102 32 L98 38" fill="#FFD700"/>
  <path d="M22 38 L18 32 L20 38 L14 36 L18 42" fill="#FFD700"/>
  <!-- Raised fist right arm -->
  <rect x="86" y="90" width="18" height="32" rx="9" fill="#FBBF7A"/>
  <ellipse cx="95" cy="88" rx="12" ry="9" fill="#FBBF7A"/>
  <!-- Happy energetic eyes (wide open) -->
  <ellipse cx="46" cy="67" rx="7" ry="8" fill="white"/>
  <ellipse cx="74" cy="67" rx="7" ry="8" fill="white"/>
  <circle cx="46" cy="68" r="4" fill="#3A2410"/>
  <circle cx="74" cy="68" r="4" fill="#3A2410"/>
  <circle cx="47.5" cy="66" r="1.4" fill="white"/>
  <circle cx="75.5" cy="66" r="1.4" fill="white"/>
  <!-- Energetic arched brows -->
  <path d="M39 58 Q46 54 53 58" stroke="#7D4E2A" stroke-width="2.5" fill="none" stroke-linecap="round"/>
  <path d="M67 58 Q74 54 81 58" stroke="#7D4E2A" stroke-width="2.5" fill="none" stroke-linecap="round"/>
  <!-- Big smile -->
  <path d="M42 81 Q60 96 78 81" stroke="#E05050" stroke-width="2.5" fill="#E87070" stroke-linecap="round"/>
  <path d="M46 83 Q60 93 74 83" fill="white"/>
  <!-- Cheeks bright -->
  <ellipse cx="38" cy="78" rx="9" ry="6" fill="#F08080" opacity="0.5"/>
  <ellipse cx="82" cy="78" rx="9" ry="6" fill="#F08080" opacity="0.5"/>
</svg>
