<svg xmlns="http://www.w3.org/2000/svg" viewBox="0 0 120 140">
  <!-- Body / shirt -->
  <ellipse cx="60" cy="130" rx="38" ry="18" fill="#7BBFEA"/>
  <rect x="28" y="112" width="64" height="28" rx="14" fill="#7BBFEA"/>
  <!-- Neck -->
  <rect x="50" y="96" width="20" height="18" rx="6" fill="#FBBF7A"/>
  <!-- Head -->
  <ellipse cx="60" cy="72" rx="36" ry="38" fill="#FBBF7A"/>
  <!-- Hair -->
  <ellipse cx="60" cy="42" rx="36" ry="16" fill="#7D4E2A"/>
  <ellipse cx="30" cy="52" rx="10" ry="12" fill="#7D4E2A"/>
  <ellipse cx="90" cy="52" rx="10" ry="12" fill="#7D4E2A"/>
  <!-- Eyes -->
  <ellipse cx="46" cy="68" rx="6" ry="7" fill="white"/>
  <ellipse cx="74" cy="68" rx="6" ry="7" fill="white"/>
  <circle cx="47" cy="69" r="3.5" fill="#3A2410"/>
  <circle cx="75" cy="69" r="3.5" fill="#3A2410"/>
  <circle cx="48.5" cy="67.5" r="1.2" fill="white"/>
  <circle cx="76.5" cy="67.5" r="1.2" fill="white"/>
  <!-- Eyebrows happy -->
  <path d="M40 60 Q46 56 52 60" stroke="#7D4E2A" stroke-width="2.5" fill="none" stroke-linecap="round"/>
  <path d="M68 60 Q74 56 80 60" stroke="#7D4E2A" stroke-width="2.5" fill="none" stroke-linecap="round"/>
  <!-- Smile big -->
  <path d="M42 80 Q60 96 78 80" stroke="#E05050" stroke-width="2.5" fill="#E87070" stroke-linecap="round"/>
  <!-- Teeth -->
  <path d="M46 82 Q60 92 74 82" fill="white"/>
  <!-- Cheeks blush -->
  <ellipse cx="38" cy="78" rx="8" ry="5" fill="#F08080" opacity="0.4"/>
  <ellipse cx="82" cy="78" rx="8" ry="5" fill="#F08080" opacity="0.4"/>
</svg>
